# xmcd CD database file
#
# Track frame offsets:
#	187
#	10837
#	23872
#	35505
#	50000
#	69050
#	86537
#	104125
#	118282
#	136457
#	155645
#
# Disc length: 2424 seconds
#
# Revision: 2
# Processed by: cddbd v1.5.2PL0 Copyright (c) Steve Scherf et al.
# Submitted via: CDex 1.70beta3
#
DISCID=9509760b
DTITLE=Halfnelson - Halfnelson
DYEAR=1973
DGENRE=Pop
TTITLE0=Wonder Girl
TTITLE1=Fa La Fa Lee
TTITLE2=Roger
TTITLE3=High C
TTITLE4=Fletcher Honorama
TTITLE5=Simple Ballet
TTITLE6=Slowboat
TTITLE7=Biology 2
TTITLE8=Saccharin And The War
TTITLE9=Big Bands
TTITLE10=(No More) Mr. Nice Guys
EXTD=YEAR: 1973
EXTT0=
EXTT1=
EXTT2=
EXTT3=
EXTT4=
EXTT5=
EXTT6=
EXTT7=
EXTT8=
EXTT9=
EXTT10=
PLAYORDER=
